<mxfile host="app.diagrams.net" agent="Mozilla/5.0 (Windows NT 10.0; Win64; x64) AppleWebKit/537.36 (KHTML, like Gecko) Chrome/130.0.0.0 Safari/537.36 Edg/130.0.0.0" version="24.8.3">
  <diagram name="Página-1" id="zAEK4qtqUi5M_X3Rb6sc">
    <mxGraphModel dx="3780" dy="3751" grid="1" gridSize="10" guides="1" tooltips="1" connect="1" arrows="1" fold="1" page="1" pageScale="1" pageWidth="827" pageHeight="1169" math="0" shadow="0">
      <root>
        <mxCell id="0" />
        <mxCell id="1" parent="0" />
        <mxCell id="ab4cVDcRjz08bC6YEROE-18" value="" style="rounded=0;whiteSpace=wrap;html=1;" vertex="1" parent="1">
          <mxGeometry x="-60" y="-1220" width="2360" height="1180" as="geometry" />
        </mxCell>
        <mxCell id="ab4cVDcRjz08bC6YEROE-1" value="Módulos do SAP (Estrutura Zaffari - Visão Geral)" style="text;html=1;align=center;verticalAlign=middle;whiteSpace=wrap;rounded=0;fontStyle=1;fontSize=18;" vertex="1" parent="1">
          <mxGeometry x="260" y="-1190" width="420" height="40" as="geometry" />
        </mxCell>
        <mxCell id="ab4cVDcRjz08bC6YEROE-2" value="CARAB" style="rounded=0;whiteSpace=wrap;html=1;fillColor=#dae8fc;strokeColor=#6c8ebf;fontStyle=1;fontSize=17;" vertex="1" parent="1">
          <mxGeometry x="250" y="-1080" width="120" height="120" as="geometry" />
        </mxCell>
        <mxCell id="ab4cVDcRjz08bC6YEROE-5" value="&lt;b style=&quot;font-size: 19px;&quot;&gt;PI&lt;/b&gt;" style="rounded=0;whiteSpace=wrap;html=1;fillColor=#cdeb8b;strokeColor=#36393d;fontSize=19;" vertex="1" parent="1">
          <mxGeometry x="440" y="-1060" width="90" height="70" as="geometry" />
        </mxCell>
        <mxCell id="ab4cVDcRjz08bC6YEROE-6" value="&lt;span style=&quot;font-size: 20px;&quot;&gt;ECC&lt;/span&gt;" style="rounded=0;whiteSpace=wrap;html=1;fillColor=#ffcccc;strokeColor=#36393d;fontStyle=1;fontSize=20;" vertex="1" parent="1">
          <mxGeometry x="670" y="-1060" width="140" height="120" as="geometry" />
        </mxCell>
        <mxCell id="ab4cVDcRjz08bC6YEROE-7" value="" style="html=1;verticalLabelPosition=bottom;align=center;labelBackgroundColor=#9AC7BF;verticalAlign=top;strokeWidth=2;strokeColor=#000000;shadow=0;dashed=0;shape=mxgraph.ios7.icons.shopping_cart;fillColor=#3333FF;" vertex="1" parent="1">
          <mxGeometry x="110" y="-1050" width="60" height="60" as="geometry" />
        </mxCell>
        <mxCell id="ab4cVDcRjz08bC6YEROE-10" value="" style="endArrow=classic;html=1;rounded=0;fontColor=#000000;labelBackgroundColor=#000000;fillColor=#000000;endWidth=13.11111111111111;strokeWidth=4;entryX=0;entryY=0.5;entryDx=0;entryDy=0;" edge="1" parent="1" target="ab4cVDcRjz08bC6YEROE-2">
          <mxGeometry width="50" height="50" relative="1" as="geometry">
            <mxPoint x="170" y="-1020.19" as="sourcePoint" />
            <mxPoint x="240" y="-1020.19" as="targetPoint" />
            <Array as="points">
              <mxPoint x="200" y="-1020.19" />
            </Array>
          </mxGeometry>
        </mxCell>
        <mxCell id="ab4cVDcRjz08bC6YEROE-12" value="EAC" style="text;html=1;align=center;verticalAlign=middle;whiteSpace=wrap;rounded=0;fontStyle=1;fontSize=17;" vertex="1" parent="1">
          <mxGeometry x="110" y="-990" width="60" height="30" as="geometry" />
        </mxCell>
        <mxCell id="ab4cVDcRjz08bC6YEROE-13" value="" style="endArrow=classic;html=1;rounded=0;fontColor=#000000;labelBackgroundColor=#000000;fillColor=#000000;endWidth=13.11111111111111;strokeWidth=4;" edge="1" parent="1">
          <mxGeometry width="50" height="50" relative="1" as="geometry">
            <mxPoint x="370" y="-1020.48" as="sourcePoint" />
            <mxPoint x="440" y="-1020" as="targetPoint" />
            <Array as="points">
              <mxPoint x="400" y="-1020.48" />
            </Array>
          </mxGeometry>
        </mxCell>
        <mxCell id="ab4cVDcRjz08bC6YEROE-15" value="" style="endArrow=classic;html=1;rounded=0;fontColor=#000000;labelBackgroundColor=#000000;fillColor=#000000;endWidth=13.11111111111111;strokeWidth=4;entryX=0;entryY=0.5;entryDx=0;entryDy=0;exitX=1.001;exitY=0.561;exitDx=0;exitDy=0;exitPerimeter=0;" edge="1" parent="1" source="ab4cVDcRjz08bC6YEROE-5" target="ab4cVDcRjz08bC6YEROE-6">
          <mxGeometry width="50" height="50" relative="1" as="geometry">
            <mxPoint x="540" y="-1010" as="sourcePoint" />
            <mxPoint x="550" y="-1020.33" as="targetPoint" />
            <Array as="points">
              <mxPoint x="540" y="-1020.33" />
            </Array>
          </mxGeometry>
        </mxCell>
        <mxCell id="ab4cVDcRjz08bC6YEROE-16" value="" style="endArrow=none;html=1;rounded=0;exitX=0.5;exitY=0;exitDx=0;exitDy=0;" edge="1" parent="1" source="ab4cVDcRjz08bC6YEROE-5">
          <mxGeometry width="50" height="50" relative="1" as="geometry">
            <mxPoint x="430" y="-1000" as="sourcePoint" />
            <mxPoint x="470" y="-1080" as="targetPoint" />
          </mxGeometry>
        </mxCell>
        <mxCell id="ab4cVDcRjz08bC6YEROE-17" value="Funciona como um carteiro. Pega dados de um sistema e envia para outro." style="text;html=1;align=center;verticalAlign=middle;whiteSpace=wrap;rounded=0;" vertex="1" parent="1">
          <mxGeometry x="320" y="-1120" width="260" height="40" as="geometry" />
        </mxCell>
        <mxCell id="ab4cVDcRjz08bC6YEROE-20" value="Customer Activity Repository (CAR) é um repositório&amp;nbsp; onde ficam armazenadas as vendas (cupons)" style="text;html=1;align=center;verticalAlign=middle;whiteSpace=wrap;rounded=0;" vertex="1" parent="1">
          <mxGeometry x="10" y="-870" width="290" height="30" as="geometry" />
        </mxCell>
        <mxCell id="ab4cVDcRjz08bC6YEROE-21" value="" style="endArrow=none;html=1;rounded=0;entryX=0.5;entryY=1;entryDx=0;entryDy=0;exitX=0.468;exitY=-0.054;exitDx=0;exitDy=0;exitPerimeter=0;" edge="1" parent="1" source="ab4cVDcRjz08bC6YEROE-20" target="ab4cVDcRjz08bC6YEROE-2">
          <mxGeometry width="50" height="50" relative="1" as="geometry">
            <mxPoint x="160" y="-880" as="sourcePoint" />
            <mxPoint x="152.5" y="-940" as="targetPoint" />
          </mxGeometry>
        </mxCell>
        <mxCell id="ab4cVDcRjz08bC6YEROE-22" value="Parte fiscal e contábil, contas a pagar, receber e logística, quantos naturale vendeu, estoque." style="text;html=1;align=center;verticalAlign=middle;whiteSpace=wrap;rounded=0;" vertex="1" parent="1">
          <mxGeometry x="660" y="-1120" width="290" height="30" as="geometry" />
        </mxCell>
        <mxCell id="ab4cVDcRjz08bC6YEROE-23" value="" style="endArrow=none;html=1;rounded=0;exitX=0.289;exitY=1.09;exitDx=0;exitDy=0;exitPerimeter=0;entryX=0.5;entryY=0;entryDx=0;entryDy=0;" edge="1" parent="1" source="ab4cVDcRjz08bC6YEROE-22" target="ab4cVDcRjz08bC6YEROE-6">
          <mxGeometry width="50" height="50" relative="1" as="geometry">
            <mxPoint x="700" y="-1060" as="sourcePoint" />
            <mxPoint x="610" y="-1040" as="targetPoint" />
          </mxGeometry>
        </mxCell>
        <mxCell id="ab4cVDcRjz08bC6YEROE-24" value="BI" style="rounded=0;whiteSpace=wrap;html=1;fillColor=#ffff88;strokeColor=#36393d;fontStyle=1;fontSize=20;" vertex="1" parent="1">
          <mxGeometry x="330" y="-800" width="120" height="80" as="geometry" />
        </mxCell>
        <mxCell id="ab4cVDcRjz08bC6YEROE-25" value="" style="endArrow=none;html=1;rounded=0;entryX=0;entryY=0.75;entryDx=0;entryDy=0;" edge="1" parent="1" target="ab4cVDcRjz08bC6YEROE-24">
          <mxGeometry width="50" height="50" relative="1" as="geometry">
            <mxPoint x="250" y="-700" as="sourcePoint" />
            <mxPoint x="330" y="-760" as="targetPoint" />
          </mxGeometry>
        </mxCell>
        <mxCell id="ab4cVDcRjz08bC6YEROE-26" value="Business Inteligence (BI) oferece funcionalidades&amp;nbsp; que ajudam os usuários a tomar decisões mais eficazes e bem fundamentas, com base em análises e dados sólidos (relatórios / dashboards / exploração)" style="text;html=1;align=center;verticalAlign=middle;whiteSpace=wrap;rounded=0;" vertex="1" parent="1">
          <mxGeometry x="-60" y="-730" width="310" height="70" as="geometry" />
        </mxCell>
        <mxCell id="ab4cVDcRjz08bC6YEROE-27" value="GRC - NFE" style="rounded=0;whiteSpace=wrap;html=1;fillColor=#ffcc99;strokeColor=#36393d;fontStyle=1;fontSize=20;" vertex="1" parent="1">
          <mxGeometry x="460" y="-670" width="120" height="60" as="geometry" />
        </mxCell>
        <mxCell id="ab4cVDcRjz08bC6YEROE-28" value="O GRC NF-E é uma solução que tem integração com o SEFAZ (já que ele se conecta com todas as secretarias da fazenda de cada estado brasileiro). O XML da NF-E do fornecedor é conferido previamente e no recebimento físico o registro dos dados é feito automaticamente." style="text;html=1;align=center;verticalAlign=middle;whiteSpace=wrap;rounded=0;" vertex="1" parent="1">
          <mxGeometry x="180" y="-550" width="310" height="70" as="geometry" />
        </mxCell>
        <mxCell id="ab4cVDcRjz08bC6YEROE-29" value="" style="endArrow=none;html=1;rounded=0;entryX=0.083;entryY=1;entryDx=0;entryDy=0;exitX=0.5;exitY=0;exitDx=0;exitDy=0;entryPerimeter=0;" edge="1" parent="1" source="ab4cVDcRjz08bC6YEROE-28" target="ab4cVDcRjz08bC6YEROE-27">
          <mxGeometry width="50" height="50" relative="1" as="geometry">
            <mxPoint x="450" y="-610" as="sourcePoint" />
            <mxPoint x="530" y="-650" as="targetPoint" />
          </mxGeometry>
        </mxCell>
        <mxCell id="ab4cVDcRjz08bC6YEROE-30" value="GRC - AC" style="rounded=0;whiteSpace=wrap;html=1;fillColor=#dae8fc;strokeColor=#6c8ebf;fontStyle=1;fontSize=20;" vertex="1" parent="1">
          <mxGeometry x="570" y="-450" width="120" height="60" as="geometry" />
        </mxCell>
        <mxCell id="ab4cVDcRjz08bC6YEROE-31" value="A solução que SAP GRC oferece ferramentas para uma gestão completa e automatizada dos processos organizacionais que envolvem potenciais riscos para a governança da empresa, adequando as regras de compliance para uma gestão segura e preventiva&amp;nbsp;" style="text;html=1;align=center;verticalAlign=middle;whiteSpace=wrap;rounded=0;" vertex="1" parent="1">
          <mxGeometry x="280" y="-340" width="310" height="70" as="geometry" />
        </mxCell>
        <mxCell id="ab4cVDcRjz08bC6YEROE-32" value="" style="endArrow=none;html=1;rounded=0;entryX=0.15;entryY=0.956;entryDx=0;entryDy=0;entryPerimeter=0;exitX=0.663;exitY=-0.022;exitDx=0;exitDy=0;exitPerimeter=0;" edge="1" parent="1" source="ab4cVDcRjz08bC6YEROE-31" target="ab4cVDcRjz08bC6YEROE-30">
          <mxGeometry width="50" height="50" relative="1" as="geometry">
            <mxPoint x="500" y="-370" as="sourcePoint" />
            <mxPoint x="680" y="-450" as="targetPoint" />
          </mxGeometry>
        </mxCell>
        <mxCell id="ab4cVDcRjz08bC6YEROE-33" value="" style="endArrow=classic;html=1;rounded=0;fontColor=#000000;labelBackgroundColor=#000000;fillColor=#000000;endWidth=13.11111111111111;strokeWidth=4;exitX=0.25;exitY=1;exitDx=0;exitDy=0;" edge="1" parent="1" source="ab4cVDcRjz08bC6YEROE-6" target="ab4cVDcRjz08bC6YEROE-27">
          <mxGeometry width="50" height="50" relative="1" as="geometry">
            <mxPoint x="380" y="-1010.48" as="sourcePoint" />
            <mxPoint x="450" y="-1010" as="targetPoint" />
            <Array as="points" />
          </mxGeometry>
        </mxCell>
        <mxCell id="ab4cVDcRjz08bC6YEROE-35" value="" style="endArrow=classic;html=1;rounded=0;fontColor=#000000;labelBackgroundColor=#000000;fillColor=#000000;endWidth=13.11111111111111;strokeWidth=4;entryX=0.5;entryY=0;entryDx=0;entryDy=0;" edge="1" parent="1" source="ab4cVDcRjz08bC6YEROE-6" target="ab4cVDcRjz08bC6YEROE-30">
          <mxGeometry width="50" height="50" relative="1" as="geometry">
            <mxPoint x="715" y="-930" as="sourcePoint" />
            <mxPoint x="548" y="-660" as="targetPoint" />
            <Array as="points" />
          </mxGeometry>
        </mxCell>
        <mxCell id="ab4cVDcRjz08bC6YEROE-36" value="EWM" style="rounded=0;whiteSpace=wrap;html=1;fillColor=#e1d5e7;strokeColor=#9673a6;fontStyle=1;fontSize=20;" vertex="1" parent="1">
          <mxGeometry x="790" y="-450" width="120" height="60" as="geometry" />
        </mxCell>
        <mxCell id="ab4cVDcRjz08bC6YEROE-37" style="edgeStyle=orthogonalEdgeStyle;rounded=0;orthogonalLoop=1;jettySize=auto;html=1;exitX=0.5;exitY=1;exitDx=0;exitDy=0;" edge="1" parent="1" source="ab4cVDcRjz08bC6YEROE-30" target="ab4cVDcRjz08bC6YEROE-30">
          <mxGeometry relative="1" as="geometry" />
        </mxCell>
        <mxCell id="ab4cVDcRjz08bC6YEROE-38" value="" style="endArrow=classic;html=1;rounded=0;fontColor=#000000;labelBackgroundColor=#000000;fillColor=#000000;endWidth=13.11111111111111;strokeWidth=4;entryX=0.589;entryY=0.046;entryDx=0;entryDy=0;entryPerimeter=0;exitX=0.5;exitY=1;exitDx=0;exitDy=0;" edge="1" parent="1" source="ab4cVDcRjz08bC6YEROE-6" target="ab4cVDcRjz08bC6YEROE-36">
          <mxGeometry width="50" height="50" relative="1" as="geometry">
            <mxPoint x="738" y="-930" as="sourcePoint" />
            <mxPoint x="640" y="-440" as="targetPoint" />
            <Array as="points" />
          </mxGeometry>
        </mxCell>
        <mxCell id="ab4cVDcRjz08bC6YEROE-39" value="Estoque centralizado, central de distribuição das mercadorias (CD), diz para onde vai as compras do fornecedor" style="text;html=1;align=center;verticalAlign=middle;whiteSpace=wrap;rounded=0;" vertex="1" parent="1">
          <mxGeometry x="740" y="-340" width="310" height="70" as="geometry" />
        </mxCell>
        <mxCell id="ab4cVDcRjz08bC6YEROE-40" value="" style="endArrow=none;html=1;rounded=0;entryX=0.338;entryY=0.957;entryDx=0;entryDy=0;entryPerimeter=0;" edge="1" parent="1" source="ab4cVDcRjz08bC6YEROE-39" target="ab4cVDcRjz08bC6YEROE-36">
          <mxGeometry width="50" height="50" relative="1" as="geometry">
            <mxPoint x="496" y="-332" as="sourcePoint" />
            <mxPoint x="598" y="-383" as="targetPoint" />
          </mxGeometry>
        </mxCell>
        <mxCell id="ab4cVDcRjz08bC6YEROE-41" value="" style="endArrow=classic;html=1;rounded=0;fontColor=#000000;labelBackgroundColor=#000000;fillColor=#000000;endWidth=13.11111111111111;strokeWidth=4;exitX=0.5;exitY=1;exitDx=0;exitDy=0;entryX=0.5;entryY=0;entryDx=0;entryDy=0;" edge="1" parent="1" target="ab4cVDcRjz08bC6YEROE-42">
          <mxGeometry width="50" height="50" relative="1" as="geometry">
            <mxPoint x="750" y="-930" as="sourcePoint" />
            <mxPoint x="1170" y="-430" as="targetPoint" />
            <Array as="points" />
          </mxGeometry>
        </mxCell>
        <mxCell id="ab4cVDcRjz08bC6YEROE-42" value="CFolders" style="rounded=0;whiteSpace=wrap;html=1;fillColor=#d5e8d4;strokeColor=#82b366;fontStyle=1;fontSize=20;gradientColor=#97d077;" vertex="1" parent="1">
          <mxGeometry x="1080" y="-560" width="120" height="60" as="geometry" />
        </mxCell>
        <mxCell id="ab4cVDcRjz08bC6YEROE-44" value="CFolders (Collaboration Folders) é a plataforma de colaboração baseada na Web. O aplicativo permite que as equipes que trabalham no desenvolvimento de produtos em cenários entre empresas se comuniquem e cooperem entre si. O CFolders permite que as equipes troquem informações estruturadas como listas de materiais, planilhas de dados ou estruturas de definidas pelo cliente. Essa abordagem melhora a consistência de seus dados ao se comunicar com parceiros e fornecedores externos." style="text;html=1;align=center;verticalAlign=middle;whiteSpace=wrap;rounded=0;" vertex="1" parent="1">
          <mxGeometry x="1212" y="-470" width="418" height="160" as="geometry" />
        </mxCell>
        <mxCell id="ab4cVDcRjz08bC6YEROE-45" value="" style="endArrow=none;html=1;rounded=0;entryX=0.338;entryY=0.957;entryDx=0;entryDy=0;entryPerimeter=0;exitX=0.019;exitY=0.063;exitDx=0;exitDy=0;exitPerimeter=0;" edge="1" parent="1" source="ab4cVDcRjz08bC6YEROE-44">
          <mxGeometry width="50" height="50" relative="1" as="geometry">
            <mxPoint x="1212" y="-447" as="sourcePoint" />
            <mxPoint x="1174" y="-500" as="targetPoint" />
          </mxGeometry>
        </mxCell>
        <mxCell id="ab4cVDcRjz08bC6YEROE-46" value="TDF" style="rounded=0;whiteSpace=wrap;html=1;fillColor=#fff2cc;strokeColor=#d6b656;fontStyle=1;fontSize=20;gradientColor=#ffd966;" vertex="1" parent="1">
          <mxGeometry x="1170" y="-650" width="120" height="60" as="geometry" />
        </mxCell>
        <mxCell id="ab4cVDcRjz08bC6YEROE-47" value="" style="endArrow=classic;html=1;rounded=0;fontColor=#000000;labelBackgroundColor=#000000;fillColor=#000000;endWidth=13.11111111111111;strokeWidth=4;entryX=0;entryY=0.25;entryDx=0;entryDy=0;" edge="1" parent="1" target="ab4cVDcRjz08bC6YEROE-46">
          <mxGeometry width="50" height="50" relative="1" as="geometry">
            <mxPoint x="800" y="-945" as="sourcePoint" />
            <mxPoint x="1190" y="-575" as="targetPoint" />
            <Array as="points" />
          </mxGeometry>
        </mxCell>
        <mxCell id="ab4cVDcRjz08bC6YEROE-49" value="O TDF (Tax Declaration Framework) é uma plataforma desenvolvida pela SAP para realização da entrega de obrigações acessórias e gerencimaneto de dados fiscais e contábeis. Ela tem como objetivo aumentar a qualidade das informações, juntamente com o aumento da produtividade dos departamentos fiscais, contábil, financeiro e de controladoria. O TDF garante o atendimento ao projeto SPED com a geração de diversas obrigações acessórias tais como o SPED contábil, SPED fiscal, e-social, ECF e EFD contribuições" style="text;html=1;align=center;verticalAlign=middle;whiteSpace=wrap;rounded=0;" vertex="1" parent="1">
          <mxGeometry x="1330" y="-630" width="520" height="160" as="geometry" />
        </mxCell>
        <mxCell id="ab4cVDcRjz08bC6YEROE-50" value="" style="endArrow=none;html=1;rounded=0;entryX=0.338;entryY=0.957;entryDx=0;entryDy=0;entryPerimeter=0;" edge="1" parent="1" source="ab4cVDcRjz08bC6YEROE-49">
          <mxGeometry width="50" height="50" relative="1" as="geometry">
            <mxPoint x="1336" y="-584" as="sourcePoint" />
            <mxPoint x="1290" y="-624" as="targetPoint" />
          </mxGeometry>
        </mxCell>
      </root>
    </mxGraphModel>
  </diagram>
</mxfile>
